<mxfile host="app.diagrams.net" modified="2022-07-07T07:36:23.947Z" agent="5.0 (Macintosh; Intel Mac OS X 10_15_7) AppleWebKit/537.36 (KHTML, like Gecko) Chrome/103.0.0.0 Safari/537.36" etag="yvtJzFPXs4k0uqla3wlQ" version="20.0.4" type="github" pages="2">
  <diagram id="xB_DXqh3xJorZ0jUKmql" name="Page-1">
    <mxGraphModel dx="1371" dy="801" grid="1" gridSize="10" guides="1" tooltips="1" connect="1" arrows="1" fold="1" page="1" pageScale="1" pageWidth="827" pageHeight="1169" math="0" shadow="0">
      <root>
        <mxCell id="0" />
        <mxCell id="1" parent="0" />
        <mxCell id="i6pQpKpUv2CvztfTBtSo-24" value="DAO" style="swimlane;fontStyle=1;align=center;verticalAlign=top;childLayout=stackLayout;horizontal=1;startSize=26;horizontalStack=0;resizeParent=1;resizeParentMax=0;resizeLast=0;collapsible=1;marginBottom=0;" vertex="1" parent="1">
          <mxGeometry x="10" y="120" width="320" height="342" as="geometry" />
        </mxCell>
        <mxCell id="i6pQpKpUv2CvztfTBtSo-95" value="+ root: VotePool* (默认全体选举不可被提案修改或升级)" style="text;strokeColor=none;fillColor=none;align=left;verticalAlign=top;spacingLeft=4;spacingRight=4;overflow=hidden;rotatable=0;points=[[0,0.5],[1,0.5]];portConstraint=eastwest;" vertex="1" parent="i6pQpKpUv2CvztfTBtSo-24">
          <mxGeometry y="26" width="320" height="26" as="geometry" />
        </mxCell>
        <mxCell id="i6pQpKpUv2CvztfTBtSo-94" value="+ member: Member*" style="text;strokeColor=none;fillColor=none;align=left;verticalAlign=top;spacingLeft=4;spacingRight=4;overflow=hidden;rotatable=0;points=[[0,0.5],[1,0.5]];portConstraint=eastwest;" vertex="1" parent="i6pQpKpUv2CvztfTBtSo-24">
          <mxGeometry y="52" width="320" height="26" as="geometry" />
        </mxCell>
        <mxCell id="i6pQpKpUv2CvztfTBtSo-73" value="+ ledger: Ledger*" style="text;strokeColor=none;fillColor=none;align=left;verticalAlign=top;spacingLeft=4;spacingRight=4;overflow=hidden;rotatable=0;points=[[0,0.5],[1,0.5]];portConstraint=eastwest;" vertex="1" parent="i6pQpKpUv2CvztfTBtSo-24">
          <mxGeometry y="78" width="320" height="26" as="geometry" />
        </mxCell>
        <mxCell id="i6pQpKpUv2CvztfTBtSo-42" value="+ asset: Asset*" style="text;strokeColor=none;fillColor=none;align=left;verticalAlign=top;spacingLeft=4;spacingRight=4;overflow=hidden;rotatable=0;points=[[0,0.5],[1,0.5]];portConstraint=eastwest;" vertex="1" parent="i6pQpKpUv2CvztfTBtSo-24">
          <mxGeometry y="104" width="320" height="26" as="geometry" />
        </mxCell>
        <mxCell id="i6pQpKpUv2CvztfTBtSo-93" value="+ exchange: Exchange*" style="text;strokeColor=none;fillColor=none;align=left;verticalAlign=top;spacingLeft=4;spacingRight=4;overflow=hidden;rotatable=0;points=[[0,0.5],[1,0.5]];portConstraint=eastwest;" vertex="1" parent="i6pQpKpUv2CvztfTBtSo-24">
          <mxGeometry y="130" width="320" height="26" as="geometry" />
        </mxCell>
        <mxCell id="9ka4PagioicQQLuH6mFu-43" value="+ departments: Map&lt;Address, Department*&gt; (其它部门)" style="text;strokeColor=none;fillColor=none;align=left;verticalAlign=top;spacingLeft=4;spacingRight=4;overflow=hidden;rotatable=0;points=[[0,0.5],[1,0.5]];portConstraint=eastwest;" vertex="1" parent="i6pQpKpUv2CvztfTBtSo-24">
          <mxGeometry y="156" width="320" height="26" as="geometry" />
        </mxCell>
        <mxCell id="i6pQpKpUv2CvztfTBtSo-26" value="" style="line;strokeWidth=1;fillColor=none;align=left;verticalAlign=middle;spacingTop=-1;spacingLeft=3;spacingRight=3;rotatable=0;labelPosition=right;points=[];portConstraint=eastwest;" vertex="1" parent="i6pQpKpUv2CvztfTBtSo-24">
          <mxGeometry y="182" width="320" height="8" as="geometry" />
        </mxCell>
        <mxCell id="i6pQpKpUv2CvztfTBtSo-104" value="+ init(ledger, member, root, asset, exchange): void" style="text;strokeColor=none;fillColor=none;align=left;verticalAlign=top;spacingLeft=4;spacingRight=4;overflow=hidden;rotatable=0;points=[[0,0.5],[1,0.5]];portConstraint=eastwest;" vertex="1" parent="i6pQpKpUv2CvztfTBtSo-24">
          <mxGeometry y="190" width="320" height="32" as="geometry" />
        </mxCell>
        <mxCell id="i6pQpKpUv2CvztfTBtSo-105" value="+ setLedger(ledger): void (onlyDAO)" style="text;strokeColor=none;fillColor=none;align=left;verticalAlign=top;spacingLeft=4;spacingRight=4;overflow=hidden;rotatable=0;points=[[0,0.5],[1,0.5]];portConstraint=eastwest;" vertex="1" parent="i6pQpKpUv2CvztfTBtSo-24">
          <mxGeometry y="222" width="320" height="30" as="geometry" />
        </mxCell>
        <mxCell id="i6pQpKpUv2CvztfTBtSo-109" value="+ setAsset(asset): void (onlyDAO)" style="text;strokeColor=none;fillColor=none;align=left;verticalAlign=top;spacingLeft=4;spacingRight=4;overflow=hidden;rotatable=0;points=[[0,0.5],[1,0.5]];portConstraint=eastwest;" vertex="1" parent="i6pQpKpUv2CvztfTBtSo-24">
          <mxGeometry y="252" width="320" height="30" as="geometry" />
        </mxCell>
        <mxCell id="i6pQpKpUv2CvztfTBtSo-110" value="+ setExchange(exchange): void (onlyDAO)" style="text;strokeColor=none;fillColor=none;align=left;verticalAlign=top;spacingLeft=4;spacingRight=4;overflow=hidden;rotatable=0;points=[[0,0.5],[1,0.5]];portConstraint=eastwest;" vertex="1" parent="i6pQpKpUv2CvztfTBtSo-24">
          <mxGeometry y="282" width="320" height="30" as="geometry" />
        </mxCell>
        <mxCell id="9ka4PagioicQQLuH6mFu-44" value="+ setDepartments(department, isDel): void (onlyDAO)" style="text;strokeColor=none;fillColor=none;align=left;verticalAlign=top;spacingLeft=4;spacingRight=4;overflow=hidden;rotatable=0;points=[[0,0.5],[1,0.5]];portConstraint=eastwest;" vertex="1" parent="i6pQpKpUv2CvztfTBtSo-24">
          <mxGeometry y="312" width="320" height="30" as="geometry" />
        </mxCell>
        <mxCell id="i6pQpKpUv2CvztfTBtSo-43" value="ERC721" style="swimlane;fontStyle=0;childLayout=stackLayout;horizontal=1;startSize=26;fillColor=none;horizontalStack=0;resizeParent=1;resizeParentMax=0;resizeLast=0;collapsible=1;marginBottom=0;" vertex="1" parent="1">
          <mxGeometry x="1230" y="60" width="160" height="52" as="geometry" />
        </mxCell>
        <mxCell id="i6pQpKpUv2CvztfTBtSo-47" value="Asset" style="swimlane;fontStyle=1;align=center;verticalAlign=top;childLayout=stackLayout;horizontal=1;startSize=26;horizontalStack=0;resizeParent=1;resizeParentMax=0;resizeLast=0;collapsible=1;marginBottom=0;" vertex="1" parent="1">
          <mxGeometry x="1220" y="290" width="160" height="60" as="geometry" />
        </mxCell>
        <mxCell id="i6pQpKpUv2CvztfTBtSo-49" value="" style="line;strokeWidth=1;fillColor=none;align=left;verticalAlign=middle;spacingTop=-1;spacingLeft=3;spacingRight=3;rotatable=0;labelPosition=right;points=[];portConstraint=eastwest;" vertex="1" parent="i6pQpKpUv2CvztfTBtSo-47">
          <mxGeometry y="26" width="160" height="8" as="geometry" />
        </mxCell>
        <mxCell id="i6pQpKpUv2CvztfTBtSo-50" value="+ mint(id,owner,uri): void" style="text;strokeColor=none;fillColor=none;align=left;verticalAlign=top;spacingLeft=4;spacingRight=4;overflow=hidden;rotatable=0;points=[[0,0.5],[1,0.5]];portConstraint=eastwest;" vertex="1" parent="i6pQpKpUv2CvztfTBtSo-47">
          <mxGeometry y="34" width="160" height="26" as="geometry" />
        </mxCell>
        <mxCell id="i6pQpKpUv2CvztfTBtSo-65" value="" style="endArrow=block;endSize=16;endFill=0;html=1;rounded=0;edgeStyle=orthogonalEdgeStyle;elbow=vertical;" edge="1" parent="1" source="i6pQpKpUv2CvztfTBtSo-47" target="i6pQpKpUv2CvztfTBtSo-43">
          <mxGeometry width="160" relative="1" as="geometry">
            <mxPoint x="1010" y="290" as="sourcePoint" />
            <mxPoint x="1010" y="200" as="targetPoint" />
            <Array as="points">
              <mxPoint x="1340" y="200" />
              <mxPoint x="1340" y="200" />
            </Array>
          </mxGeometry>
        </mxCell>
        <mxCell id="i6pQpKpUv2CvztfTBtSo-66" value="Member" style="swimlane;fontStyle=1;align=center;verticalAlign=top;childLayout=stackLayout;horizontal=1;startSize=26;horizontalStack=0;resizeParent=1;resizeParentMax=0;resizeLast=0;collapsible=1;marginBottom=0;" vertex="1" parent="1">
          <mxGeometry x="1430" y="290" width="190" height="112" as="geometry" />
        </mxCell>
        <mxCell id="i6pQpKpUv2CvztfTBtSo-70" value="" style="endArrow=block;endSize=16;endFill=0;html=1;rounded=0;edgeStyle=orthogonalEdgeStyle;" edge="1" parent="i6pQpKpUv2CvztfTBtSo-66" target="i6pQpKpUv2CvztfTBtSo-43">
          <mxGeometry width="160" relative="1" as="geometry">
            <mxPoint x="100" as="sourcePoint" />
            <mxPoint x="160" y="-200" as="targetPoint" />
            <Array as="points">
              <mxPoint x="90" />
              <mxPoint x="90" y="-200" />
            </Array>
          </mxGeometry>
        </mxCell>
        <mxCell id="i6pQpKpUv2CvztfTBtSo-67" value="+ names: Map&lt;id, string&gt;" style="text;strokeColor=none;fillColor=none;align=left;verticalAlign=top;spacingLeft=4;spacingRight=4;overflow=hidden;rotatable=0;points=[[0,0.5],[1,0.5]];portConstraint=eastwest;" vertex="1" parent="i6pQpKpUv2CvztfTBtSo-66">
          <mxGeometry y="26" width="190" height="26" as="geometry" />
        </mxCell>
        <mxCell id="L-kkMwtotyOejgk_IRhS-12" value="+ avatars: Map&lt;id, string&gt;" style="text;strokeColor=none;fillColor=none;align=left;verticalAlign=top;spacingLeft=4;spacingRight=4;overflow=hidden;rotatable=0;points=[[0,0.5],[1,0.5]];portConstraint=eastwest;" vertex="1" parent="i6pQpKpUv2CvztfTBtSo-66">
          <mxGeometry y="52" width="190" height="26" as="geometry" />
        </mxCell>
        <mxCell id="L-kkMwtotyOejgk_IRhS-13" value="+ roles: Map&lt;id, uint32&gt;" style="text;strokeColor=none;fillColor=none;align=left;verticalAlign=top;spacingLeft=4;spacingRight=4;overflow=hidden;rotatable=0;points=[[0,0.5],[1,0.5]];portConstraint=eastwest;" vertex="1" parent="i6pQpKpUv2CvztfTBtSo-66">
          <mxGeometry y="78" width="190" height="26" as="geometry" />
        </mxCell>
        <mxCell id="i6pQpKpUv2CvztfTBtSo-68" value="" style="line;strokeWidth=1;fillColor=none;align=left;verticalAlign=middle;spacingTop=-1;spacingLeft=3;spacingRight=3;rotatable=0;labelPosition=right;points=[];portConstraint=eastwest;" vertex="1" parent="i6pQpKpUv2CvztfTBtSo-66">
          <mxGeometry y="104" width="190" height="8" as="geometry" />
        </mxCell>
        <mxCell id="i6pQpKpUv2CvztfTBtSo-72" value="" style="endArrow=open;html=1;endSize=12;startArrow=diamondThin;startSize=14;startFill=0;edgeStyle=elbowEdgeStyle;align=left;verticalAlign=bottom;rounded=0;" edge="1" parent="1" source="i6pQpKpUv2CvztfTBtSo-24" target="i6pQpKpUv2CvztfTBtSo-47">
          <mxGeometry x="-1" y="3" relative="1" as="geometry">
            <mxPoint x="320" y="250" as="sourcePoint" />
            <mxPoint x="480" y="250" as="targetPoint" />
            <Array as="points">
              <mxPoint x="1280" y="190" />
              <mxPoint x="1180" y="190" />
              <mxPoint x="1180" y="215" />
              <mxPoint x="810" y="450" />
              <mxPoint x="650" y="200" />
              <mxPoint x="630" y="360" />
              <mxPoint x="510" y="230" />
              <mxPoint x="640" y="390" />
              <mxPoint x="610" y="440" />
            </Array>
          </mxGeometry>
        </mxCell>
        <mxCell id="i6pQpKpUv2CvztfTBtSo-74" value="" style="endArrow=open;html=1;endSize=12;startArrow=diamondThin;startSize=14;startFill=0;edgeStyle=orthogonalEdgeStyle;align=left;verticalAlign=bottom;rounded=0;fontColor=default;labelBackgroundColor=default;" edge="1" parent="1" source="i6pQpKpUv2CvztfTBtSo-24" target="i6pQpKpUv2CvztfTBtSo-66">
          <mxGeometry x="-1" y="3" relative="1" as="geometry">
            <mxPoint x="270" y="320" as="sourcePoint" />
            <mxPoint x="430" y="320" as="targetPoint" />
            <Array as="points">
              <mxPoint x="1460" y="170" />
            </Array>
          </mxGeometry>
        </mxCell>
        <mxCell id="i6pQpKpUv2CvztfTBtSo-75" value="Ledger" style="swimlane;fontStyle=1;align=center;verticalAlign=top;childLayout=stackLayout;horizontal=1;startSize=26;horizontalStack=0;resizeParent=1;resizeParentMax=0;resizeLast=0;collapsible=1;marginBottom=0;" vertex="1" parent="1">
          <mxGeometry x="720" y="290" width="160" height="86" as="geometry" />
        </mxCell>
        <mxCell id="i6pQpKpUv2CvztfTBtSo-76" value="+ __: string" style="text;strokeColor=none;fillColor=none;align=left;verticalAlign=top;spacingLeft=4;spacingRight=4;overflow=hidden;rotatable=0;points=[[0,0.5],[1,0.5]];portConstraint=eastwest;" vertex="1" parent="i6pQpKpUv2CvztfTBtSo-75">
          <mxGeometry y="26" width="160" height="26" as="geometry" />
        </mxCell>
        <mxCell id="i6pQpKpUv2CvztfTBtSo-77" value="" style="line;strokeWidth=1;fillColor=none;align=left;verticalAlign=middle;spacingTop=-1;spacingLeft=3;spacingRight=3;rotatable=0;labelPosition=right;points=[];portConstraint=eastwest;" vertex="1" parent="i6pQpKpUv2CvztfTBtSo-75">
          <mxGeometry y="52" width="160" height="8" as="geometry" />
        </mxCell>
        <mxCell id="i6pQpKpUv2CvztfTBtSo-78" value="+ method(type): type" style="text;strokeColor=none;fillColor=none;align=left;verticalAlign=top;spacingLeft=4;spacingRight=4;overflow=hidden;rotatable=0;points=[[0,0.5],[1,0.5]];portConstraint=eastwest;" vertex="1" parent="i6pQpKpUv2CvztfTBtSo-75">
          <mxGeometry y="60" width="160" height="26" as="geometry" />
        </mxCell>
        <mxCell id="i6pQpKpUv2CvztfTBtSo-79" value="" style="endArrow=open;html=1;endSize=12;startArrow=diamondThin;startSize=14;startFill=0;edgeStyle=elbowEdgeStyle;align=left;verticalAlign=bottom;rounded=0;" edge="1" parent="1" source="i6pQpKpUv2CvztfTBtSo-24" target="i6pQpKpUv2CvztfTBtSo-75">
          <mxGeometry x="-1" y="3" relative="1" as="geometry">
            <mxPoint x="50" y="340" as="sourcePoint" />
            <mxPoint x="210" y="340" as="targetPoint" />
            <Array as="points">
              <mxPoint x="800" y="230" />
              <mxPoint x="620" y="280" />
            </Array>
          </mxGeometry>
        </mxCell>
        <mxCell id="i6pQpKpUv2CvztfTBtSo-88" value="VotePool" style="swimlane;fontStyle=1;align=center;verticalAlign=top;childLayout=stackLayout;horizontal=1;startSize=26;horizontalStack=0;resizeParent=1;resizeParentMax=0;resizeLast=0;collapsible=1;marginBottom=0;" vertex="1" parent="1">
          <mxGeometry x="390" y="290" width="280" height="268" as="geometry" />
        </mxCell>
        <mxCell id="9ka4PagioicQQLuH6mFu-19" value="+ host: DAO*" style="text;strokeColor=none;fillColor=none;align=left;verticalAlign=top;spacingLeft=4;spacingRight=4;overflow=hidden;rotatable=0;points=[[0,0.5],[1,0.5]];portConstraint=eastwest;" vertex="1" parent="i6pQpKpUv2CvztfTBtSo-88">
          <mxGeometry y="26" width="280" height="26" as="geometry" />
        </mxCell>
        <mxCell id="L-kkMwtotyOejgk_IRhS-5" value="+ info: string" style="text;strokeColor=none;fillColor=none;align=left;verticalAlign=top;spacingLeft=4;spacingRight=4;overflow=hidden;rotatable=0;points=[[0,0.5],[1,0.5]];portConstraint=eastwest;" vertex="1" parent="i6pQpKpUv2CvztfTBtSo-88">
          <mxGeometry y="52" width="280" height="26" as="geometry" />
        </mxCell>
        <mxCell id="L-kkMwtotyOejgk_IRhS-3" value="+ proposals: Map&lt;uint256, Proposal&gt;" style="text;strokeColor=none;fillColor=none;align=left;verticalAlign=top;spacingLeft=4;spacingRight=4;overflow=hidden;rotatable=0;points=[[0,0.5],[1,0.5]];portConstraint=eastwest;" vertex="1" parent="i6pQpKpUv2CvztfTBtSo-88">
          <mxGeometry y="78" width="280" height="26" as="geometry" />
        </mxCell>
        <mxCell id="9ka4PagioicQQLuH6mFu-65" value="+ current: uint256  (当前执行的提案决议)" style="text;strokeColor=none;fillColor=none;align=left;verticalAlign=top;spacingLeft=4;spacingRight=4;overflow=hidden;rotatable=0;points=[[0,0.5],[1,0.5]];portConstraint=eastwest;" vertex="1" parent="i6pQpKpUv2CvztfTBtSo-88">
          <mxGeometry y="104" width="280" height="26" as="geometry" />
        </mxCell>
        <mxCell id="i6pQpKpUv2CvztfTBtSo-90" value="" style="line;strokeWidth=1;fillColor=none;align=left;verticalAlign=middle;spacingTop=-1;spacingLeft=3;spacingRight=3;rotatable=0;labelPosition=right;points=[];portConstraint=eastwest;" vertex="1" parent="i6pQpKpUv2CvztfTBtSo-88">
          <mxGeometry y="130" width="280" height="8" as="geometry" />
        </mxCell>
        <mxCell id="i6pQpKpUv2CvztfTBtSo-91" value="+ constructor(host, info): void" style="text;strokeColor=none;fillColor=none;align=left;verticalAlign=top;spacingLeft=4;spacingRight=4;overflow=hidden;rotatable=0;points=[[0,0.5],[1,0.5]];portConstraint=eastwest;" vertex="1" parent="i6pQpKpUv2CvztfTBtSo-88">
          <mxGeometry y="138" width="280" height="26" as="geometry" />
        </mxCell>
        <mxCell id="L-kkMwtotyOejgk_IRhS-6" value="+ vote(id: uint256, agree: bool): void" style="text;strokeColor=none;fillColor=none;align=left;verticalAlign=top;spacingLeft=4;spacingRight=4;overflow=hidden;rotatable=0;points=[[0,0.5],[1,0.5]];portConstraint=eastwest;" vertex="1" parent="i6pQpKpUv2CvztfTBtSo-88">
          <mxGeometry y="164" width="280" height="26" as="geometry" />
        </mxCell>
        <mxCell id="9ka4PagioicQQLuH6mFu-1" value="+ execute(id: uint256): void  (执行决议)" style="text;strokeColor=none;fillColor=none;align=left;verticalAlign=top;spacingLeft=4;spacingRight=4;overflow=hidden;rotatable=0;points=[[0,0.5],[1,0.5]];portConstraint=eastwest;" vertex="1" parent="i6pQpKpUv2CvztfTBtSo-88">
          <mxGeometry y="190" width="280" height="26" as="geometry" />
        </mxCell>
        <mxCell id="9ka4PagioicQQLuH6mFu-2" value="+ create(proposal: Proposal): void (发起提案)" style="text;strokeColor=none;fillColor=none;align=left;verticalAlign=top;spacingLeft=4;spacingRight=4;overflow=hidden;rotatable=0;points=[[0,0.5],[1,0.5]];portConstraint=eastwest;" vertex="1" parent="i6pQpKpUv2CvztfTBtSo-88">
          <mxGeometry y="216" width="280" height="26" as="geometry" />
        </mxCell>
        <mxCell id="9ka4PagioicQQLuH6mFu-4" value="+ test(proposal: Proposal): void  (测试提案调用)" style="text;strokeColor=none;fillColor=none;align=left;verticalAlign=top;spacingLeft=4;spacingRight=4;overflow=hidden;rotatable=0;points=[[0,0.5],[1,0.5]];portConstraint=eastwest;" vertex="1" parent="i6pQpKpUv2CvztfTBtSo-88">
          <mxGeometry y="242" width="280" height="26" as="geometry" />
        </mxCell>
        <mxCell id="i6pQpKpUv2CvztfTBtSo-92" value="" style="endArrow=open;html=1;endSize=12;startArrow=diamondThin;startSize=14;startFill=0;edgeStyle=orthogonalEdgeStyle;align=left;verticalAlign=bottom;rounded=0;" edge="1" parent="1" source="i6pQpKpUv2CvztfTBtSo-24" target="i6pQpKpUv2CvztfTBtSo-88">
          <mxGeometry x="-1" y="3" relative="1" as="geometry">
            <mxPoint x="440" y="330" as="sourcePoint" />
            <mxPoint x="600" y="330" as="targetPoint" />
            <Array as="points">
              <mxPoint x="650" y="250" />
            </Array>
          </mxGeometry>
        </mxCell>
        <mxCell id="i6pQpKpUv2CvztfTBtSo-96" value="" style="endArrow=open;html=1;endSize=12;startArrow=diamondThin;startSize=14;startFill=0;edgeStyle=orthogonalEdgeStyle;align=left;verticalAlign=bottom;rounded=0;" edge="1" parent="1" source="i6pQpKpUv2CvztfTBtSo-24" target="i6pQpKpUv2CvztfTBtSo-80">
          <mxGeometry x="-1" y="3" relative="1" as="geometry">
            <mxPoint x="300" y="350" as="sourcePoint" />
            <mxPoint x="460" y="340" as="targetPoint" />
            <Array as="points">
              <mxPoint x="1060" y="210" />
            </Array>
          </mxGeometry>
        </mxCell>
        <mxCell id="i6pQpKpUv2CvztfTBtSo-80" value="Exchange" style="swimlane;fontStyle=1;align=center;verticalAlign=top;childLayout=stackLayout;horizontal=1;startSize=26;horizontalStack=0;resizeParent=1;resizeParentMax=0;resizeLast=0;collapsible=1;marginBottom=0;" vertex="1" parent="1">
          <mxGeometry x="980" y="290" width="160" height="86" as="geometry" />
        </mxCell>
        <mxCell id="i6pQpKpUv2CvztfTBtSo-100" value="+ __: string" style="text;strokeColor=none;fillColor=none;align=left;verticalAlign=top;spacingLeft=4;spacingRight=4;overflow=hidden;rotatable=0;points=[[0,0.5],[1,0.5]];portConstraint=eastwest;" vertex="1" parent="i6pQpKpUv2CvztfTBtSo-80">
          <mxGeometry y="26" width="160" height="26" as="geometry" />
        </mxCell>
        <mxCell id="i6pQpKpUv2CvztfTBtSo-82" value="" style="line;strokeWidth=1;fillColor=none;align=left;verticalAlign=middle;spacingTop=-1;spacingLeft=3;spacingRight=3;rotatable=0;labelPosition=right;points=[];portConstraint=eastwest;" vertex="1" parent="i6pQpKpUv2CvztfTBtSo-80">
          <mxGeometry y="52" width="160" height="8" as="geometry" />
        </mxCell>
        <mxCell id="i6pQpKpUv2CvztfTBtSo-83" value="+ method(type): type" style="text;strokeColor=none;fillColor=none;align=left;verticalAlign=top;spacingLeft=4;spacingRight=4;overflow=hidden;rotatable=0;points=[[0,0.5],[1,0.5]];portConstraint=eastwest;" vertex="1" parent="i6pQpKpUv2CvztfTBtSo-80">
          <mxGeometry y="60" width="160" height="26" as="geometry" />
        </mxCell>
        <mxCell id="9ka4PagioicQQLuH6mFu-7" value="Proposal" style="swimlane;fontStyle=1;align=center;verticalAlign=top;childLayout=stackLayout;horizontal=1;startSize=26;horizontalStack=0;resizeParent=1;resizeParentMax=0;resizeLast=0;collapsible=1;marginBottom=0;" vertex="1" parent="1">
          <mxGeometry x="110" y="670" width="240" height="390" as="geometry" />
        </mxCell>
        <mxCell id="9ka4PagioicQQLuH6mFu-21" value="+ id: uint256" style="text;strokeColor=none;fillColor=none;align=left;verticalAlign=top;spacingLeft=4;spacingRight=4;overflow=hidden;rotatable=0;points=[[0,0.5],[1,0.5]];portConstraint=eastwest;" vertex="1" parent="9ka4PagioicQQLuH6mFu-7">
          <mxGeometry y="26" width="240" height="26" as="geometry" />
        </mxCell>
        <mxCell id="9ka4PagioicQQLuH6mFu-8" value="+ name: string" style="text;strokeColor=none;fillColor=none;align=left;verticalAlign=top;spacingLeft=4;spacingRight=4;overflow=hidden;rotatable=0;points=[[0,0.5],[1,0.5]];portConstraint=eastwest;" vertex="1" parent="9ka4PagioicQQLuH6mFu-7">
          <mxGeometry y="52" width="240" height="26" as="geometry" />
        </mxCell>
        <mxCell id="9ka4PagioicQQLuH6mFu-11" value="+ info: string" style="text;strokeColor=none;fillColor=none;align=left;verticalAlign=top;spacingLeft=4;spacingRight=4;overflow=hidden;rotatable=0;points=[[0,0.5],[1,0.5]];portConstraint=eastwest;" vertex="1" parent="9ka4PagioicQQLuH6mFu-7">
          <mxGeometry y="78" width="240" height="26" as="geometry" />
        </mxCell>
        <mxCell id="9ka4PagioicQQLuH6mFu-12" value="+ address: Address   (目标合约)" style="text;strokeColor=none;fillColor=none;align=left;verticalAlign=top;spacingLeft=4;spacingRight=4;overflow=hidden;rotatable=0;points=[[0,0.5],[1,0.5]];portConstraint=eastwest;" vertex="1" parent="9ka4PagioicQQLuH6mFu-7">
          <mxGeometry y="104" width="240" height="26" as="geometry" />
        </mxCell>
        <mxCell id="9ka4PagioicQQLuH6mFu-13" value="+ signature: bytes32 (方法签名)" style="text;strokeColor=none;fillColor=none;align=left;verticalAlign=top;spacingLeft=4;spacingRight=4;overflow=hidden;rotatable=0;points=[[0,0.5],[1,0.5]];portConstraint=eastwest;" vertex="1" parent="9ka4PagioicQQLuH6mFu-7">
          <mxGeometry y="130" width="240" height="26" as="geometry" />
        </mxCell>
        <mxCell id="9ka4PagioicQQLuH6mFu-14" value="+ argsData: bytes (调用实参)" style="text;strokeColor=none;fillColor=none;align=left;verticalAlign=top;spacingLeft=4;spacingRight=4;overflow=hidden;rotatable=0;points=[[0,0.5],[1,0.5]];portConstraint=eastwest;" vertex="1" parent="9ka4PagioicQQLuH6mFu-7">
          <mxGeometry y="156" width="240" height="26" as="geometry" />
        </mxCell>
        <mxCell id="9ka4PagioicQQLuH6mFu-22" value="+ lifespan: uint256 (投票生命周期)" style="text;strokeColor=none;fillColor=none;align=left;verticalAlign=top;spacingLeft=4;spacingRight=4;overflow=hidden;rotatable=0;points=[[0,0.5],[1,0.5]];portConstraint=eastwest;" vertex="1" parent="9ka4PagioicQQLuH6mFu-7">
          <mxGeometry y="182" width="240" height="26" as="geometry" />
        </mxCell>
        <mxCell id="9ka4PagioicQQLuH6mFu-23" value="+ expiry: uint256 (过期时间)" style="text;strokeColor=none;fillColor=none;align=left;verticalAlign=top;spacingLeft=4;spacingRight=4;overflow=hidden;rotatable=0;points=[[0,0.5],[1,0.5]];portConstraint=eastwest;" vertex="1" parent="9ka4PagioicQQLuH6mFu-7">
          <mxGeometry y="208" width="240" height="26" as="geometry" />
        </mxCell>
        <mxCell id="9ka4PagioicQQLuH6mFu-61" value="+ voteRate: uint256 (不小于全体成员50%)" style="text;strokeColor=none;fillColor=none;align=left;verticalAlign=top;spacingLeft=4;spacingRight=4;overflow=hidden;rotatable=0;points=[[0,0.5],[1,0.5]];portConstraint=eastwest;" vertex="1" parent="9ka4PagioicQQLuH6mFu-7">
          <mxGeometry y="234" width="240" height="26" as="geometry" />
        </mxCell>
        <mxCell id="9ka4PagioicQQLuH6mFu-62" value="+ passRate: uint256 (不小于全体成员50%)" style="text;strokeColor=none;fillColor=none;align=left;verticalAlign=top;spacingLeft=4;spacingRight=4;overflow=hidden;rotatable=0;points=[[0,0.5],[1,0.5]];portConstraint=eastwest;" vertex="1" parent="9ka4PagioicQQLuH6mFu-7">
          <mxGeometry y="260" width="240" height="26" as="geometry" />
        </mxCell>
        <mxCell id="9ka4PagioicQQLuH6mFu-58" value="+ votes: Map&lt;Address, bool&gt;" style="text;strokeColor=none;fillColor=none;align=left;verticalAlign=top;spacingLeft=4;spacingRight=4;overflow=hidden;rotatable=0;points=[[0,0.5],[1,0.5]];portConstraint=eastwest;" vertex="1" parent="9ka4PagioicQQLuH6mFu-7">
          <mxGeometry y="286" width="240" height="26" as="geometry" />
        </mxCell>
        <mxCell id="9ka4PagioicQQLuH6mFu-59" value="+ agreeTotal: uint256  (同意总数)" style="text;strokeColor=none;fillColor=none;align=left;verticalAlign=top;spacingLeft=4;spacingRight=4;overflow=hidden;rotatable=0;points=[[0,0.5],[1,0.5]];portConstraint=eastwest;" vertex="1" parent="9ka4PagioicQQLuH6mFu-7">
          <mxGeometry y="312" width="240" height="26" as="geometry" />
        </mxCell>
        <mxCell id="L-kkMwtotyOejgk_IRhS-8" value="+ adopt: bool  (通过采用)" style="text;strokeColor=none;fillColor=none;align=left;verticalAlign=top;spacingLeft=4;spacingRight=4;overflow=hidden;rotatable=0;points=[[0,0.5],[1,0.5]];portConstraint=eastwest;" vertex="1" parent="9ka4PagioicQQLuH6mFu-7">
          <mxGeometry y="338" width="240" height="26" as="geometry" />
        </mxCell>
        <mxCell id="L-kkMwtotyOejgk_IRhS-2" value="+ executed: bool (是否已执行)" style="text;strokeColor=none;fillColor=none;align=left;verticalAlign=top;spacingLeft=4;spacingRight=4;overflow=hidden;rotatable=0;points=[[0,0.5],[1,0.5]];portConstraint=eastwest;" vertex="1" parent="9ka4PagioicQQLuH6mFu-7">
          <mxGeometry y="364" width="240" height="26" as="geometry" />
        </mxCell>
        <mxCell id="9ka4PagioicQQLuH6mFu-17" value="" style="endArrow=open;html=1;endSize=12;startArrow=diamondThin;startSize=14;startFill=1;edgeStyle=orthogonalEdgeStyle;align=left;verticalAlign=bottom;rounded=0;elbow=vertical;" edge="1" parent="1" source="i6pQpKpUv2CvztfTBtSo-88" target="9ka4PagioicQQLuH6mFu-7">
          <mxGeometry x="-1" y="3" relative="1" as="geometry">
            <mxPoint x="680" y="470" as="sourcePoint" />
            <mxPoint x="840" y="470" as="targetPoint" />
            <Array as="points">
              <mxPoint x="370" y="385" />
            </Array>
          </mxGeometry>
        </mxCell>
        <mxCell id="9ka4PagioicQQLuH6mFu-24" value="Department" style="swimlane;fontStyle=1;align=center;verticalAlign=top;childLayout=stackLayout;horizontal=1;startSize=26;horizontalStack=0;resizeParent=1;resizeParentMax=0;resizeLast=0;collapsible=1;marginBottom=0;" vertex="1" parent="1">
          <mxGeometry x="390" y="670" width="280" height="220" as="geometry" />
        </mxCell>
        <mxCell id="9ka4PagioicQQLuH6mFu-25" value="- __impl: Address  (可升级业务实现)" style="text;strokeColor=none;fillColor=none;align=left;verticalAlign=top;spacingLeft=4;spacingRight=4;overflow=hidden;rotatable=0;points=[[0,0.5],[1,0.5]];portConstraint=eastwest;" vertex="1" parent="9ka4PagioicQQLuH6mFu-24">
          <mxGeometry y="26" width="280" height="26" as="geometry" />
        </mxCell>
        <mxCell id="9ka4PagioicQQLuH6mFu-29" value="+ host: DAO*" style="text;strokeColor=none;fillColor=none;align=left;verticalAlign=top;spacingLeft=4;spacingRight=4;overflow=hidden;rotatable=0;points=[[0,0.5],[1,0.5]];portConstraint=eastwest;" vertex="1" parent="9ka4PagioicQQLuH6mFu-24">
          <mxGeometry y="52" width="280" height="26" as="geometry" />
        </mxCell>
        <mxCell id="9ka4PagioicQQLuH6mFu-42" value="+ info: string" style="text;strokeColor=none;fillColor=none;align=left;verticalAlign=top;spacingLeft=4;spacingRight=4;overflow=hidden;rotatable=0;points=[[0,0.5],[1,0.5]];portConstraint=eastwest;" vertex="1" parent="9ka4PagioicQQLuH6mFu-24">
          <mxGeometry y="78" width="280" height="26" as="geometry" />
        </mxCell>
        <mxCell id="L-kkMwtotyOejgk_IRhS-1" value="+ operator: VotePool* (由DAO认命的委员会)" style="text;strokeColor=none;fillColor=none;align=left;verticalAlign=top;spacingLeft=4;spacingRight=4;overflow=hidden;rotatable=0;points=[[0,0.5],[1,0.5]];portConstraint=eastwest;" vertex="1" parent="9ka4PagioicQQLuH6mFu-24">
          <mxGeometry y="104" width="280" height="30" as="geometry" />
        </mxCell>
        <mxCell id="9ka4PagioicQQLuH6mFu-26" value="" style="line;strokeWidth=1;fillColor=none;align=left;verticalAlign=middle;spacingTop=-1;spacingLeft=3;spacingRight=3;rotatable=0;labelPosition=right;points=[];portConstraint=eastwest;" vertex="1" parent="9ka4PagioicQQLuH6mFu-24">
          <mxGeometry y="134" width="280" height="8" as="geometry" />
        </mxCell>
        <mxCell id="i6pQpKpUv2CvztfTBtSo-27" value="+ constructor(host, info, operator)" style="text;strokeColor=none;fillColor=none;align=left;verticalAlign=top;spacingLeft=4;spacingRight=4;overflow=hidden;rotatable=0;points=[[0,0.5],[1,0.5]];portConstraint=eastwest;" vertex="1" parent="9ka4PagioicQQLuH6mFu-24">
          <mxGeometry y="142" width="280" height="26" as="geometry" />
        </mxCell>
        <mxCell id="L-kkMwtotyOejgk_IRhS-7" value="+ setOperator(Address): void (onlyDAO)" style="text;strokeColor=none;fillColor=none;align=left;verticalAlign=top;spacingLeft=4;spacingRight=4;overflow=hidden;rotatable=0;points=[[0,0.5],[1,0.5]];portConstraint=eastwest;" vertex="1" parent="9ka4PagioicQQLuH6mFu-24">
          <mxGeometry y="168" width="280" height="26" as="geometry" />
        </mxCell>
        <mxCell id="9ka4PagioicQQLuH6mFu-27" value="+ upgrade(impl): void (onlyDAO)" style="text;strokeColor=none;fillColor=none;align=left;verticalAlign=top;spacingLeft=4;spacingRight=4;overflow=hidden;rotatable=0;points=[[0,0.5],[1,0.5]];portConstraint=eastwest;" vertex="1" parent="9ka4PagioicQQLuH6mFu-24">
          <mxGeometry y="194" width="280" height="26" as="geometry" />
        </mxCell>
        <mxCell id="9ka4PagioicQQLuH6mFu-31" value="" style="endArrow=block;endSize=16;endFill=0;html=1;rounded=0;elbow=vertical;edgeStyle=orthogonalEdgeStyle;" edge="1" parent="1" source="i6pQpKpUv2CvztfTBtSo-75" target="9ka4PagioicQQLuH6mFu-24">
          <mxGeometry width="160" relative="1" as="geometry">
            <mxPoint x="900" y="550" as="sourcePoint" />
            <mxPoint x="1060" y="550" as="targetPoint" />
            <Array as="points">
              <mxPoint x="800" y="765" />
            </Array>
          </mxGeometry>
        </mxCell>
        <mxCell id="9ka4PagioicQQLuH6mFu-38" value="" style="endArrow=block;endSize=16;endFill=0;html=1;rounded=0;elbow=vertical;edgeStyle=orthogonalEdgeStyle;" edge="1" parent="1" source="i6pQpKpUv2CvztfTBtSo-80" target="9ka4PagioicQQLuH6mFu-24">
          <mxGeometry width="160" relative="1" as="geometry">
            <mxPoint x="1020" y="580" as="sourcePoint" />
            <mxPoint x="1180" y="580" as="targetPoint" />
            <Array as="points">
              <mxPoint x="1060" y="790" />
            </Array>
          </mxGeometry>
        </mxCell>
        <mxCell id="9ka4PagioicQQLuH6mFu-39" value="" style="endArrow=block;endSize=16;endFill=0;html=1;rounded=0;elbow=vertical;edgeStyle=orthogonalEdgeStyle;" edge="1" parent="1" source="i6pQpKpUv2CvztfTBtSo-47" target="9ka4PagioicQQLuH6mFu-24">
          <mxGeometry width="160" relative="1" as="geometry">
            <mxPoint x="1240" y="530" as="sourcePoint" />
            <mxPoint x="1400" y="530" as="targetPoint" />
            <Array as="points">
              <mxPoint x="1310" y="820" />
            </Array>
          </mxGeometry>
        </mxCell>
        <mxCell id="9ka4PagioicQQLuH6mFu-40" value="" style="endArrow=block;endSize=16;endFill=0;html=1;rounded=0;elbow=vertical;edgeStyle=orthogonalEdgeStyle;" edge="1" parent="1" source="i6pQpKpUv2CvztfTBtSo-66" target="9ka4PagioicQQLuH6mFu-24">
          <mxGeometry width="160" relative="1" as="geometry">
            <mxPoint x="1500" y="510" as="sourcePoint" />
            <mxPoint x="1660" y="510" as="targetPoint" />
            <Array as="points">
              <mxPoint x="1510" y="840" />
            </Array>
          </mxGeometry>
        </mxCell>
        <mxCell id="9ka4PagioicQQLuH6mFu-41" value="" style="endArrow=block;endSize=16;endFill=0;html=1;rounded=0;elbow=vertical;edgeStyle=orthogonalEdgeStyle;" edge="1" parent="1" source="i6pQpKpUv2CvztfTBtSo-24" target="9ka4PagioicQQLuH6mFu-24">
          <mxGeometry width="160" relative="1" as="geometry">
            <mxPoint x="190" y="820" as="sourcePoint" />
            <mxPoint x="350" y="820" as="targetPoint" />
            <Array as="points">
              <mxPoint x="350" y="380" />
              <mxPoint x="350" y="610" />
              <mxPoint x="530" y="610" />
            </Array>
          </mxGeometry>
        </mxCell>
        <mxCell id="L-kkMwtotyOejgk_IRhS-10" value="&lt;font style=&quot;font-size: 18px;&quot;&gt;DAO 软件实现UML&lt;/font&gt;" style="rounded=0;whiteSpace=wrap;html=1;sketch=0;fontColor=default;" vertex="1" parent="1">
          <mxGeometry x="510" y="20" width="480" height="60" as="geometry" />
        </mxCell>
      </root>
    </mxGraphModel>
  </diagram>
  <diagram id="0ZaRrvT-6cSZsH5RslhL" name="Page-2">
    <mxGraphModel dx="1371" dy="801" grid="1" gridSize="10" guides="1" tooltips="1" connect="1" arrows="1" fold="1" page="1" pageScale="1" pageWidth="827" pageHeight="1169" math="0" shadow="0">
      <root>
        <mxCell id="0" />
        <mxCell id="1" parent="0" />
      </root>
    </mxGraphModel>
  </diagram>
</mxfile>
